<?xml version="1.0" encoding="utf-8"?>
<!-- Generator: Adobe Illustrator 16.0.0, SVG Export Plug-In . SVG Version: 6.00 Build 0)  -->
<!DOCTYPE svg PUBLIC "-//W3C//DTD SVG 1.1//EN" "http://www.w3.org/Graphics/SVG/1.1/DTD/svg11.dtd">
<svg version="1.1" id="Layer_1" xmlns="http://www.w3.org/2000/svg" xmlns:xlink="http://www.w3.org/1999/xlink" x="0px" y="0px"
	 width="16px" height="16px" viewBox="298 388 16 16" enable-background="new 298 388 16 16" xml:space="preserve">
<polygon fill="#7F7A62" points="311.093,402.384 311.093,398.154 312.495,398.154 312.495,403.787 299.827,403.787 299.827,398.154 
	301.23,398.154 301.23,402.384 "/>
<path fill="#7F7A62" d="M302.78,397.754l6.889,1.439l0.292-1.386l-6.89-1.439L302.78,397.754z M303.691,394.473l6.38,2.971
	l0.584-1.275l-6.381-2.99L303.691,394.473z M305.46,391.337l5.414,4.502l0.892-1.075l-5.413-4.502L305.46,391.337z M308.958,388.001
	l-1.129,0.839l4.192,5.651l1.131-0.839L308.958,388.001z M302.634,400.962h7.035v-1.404h-7.035V400.962z"/>
</svg>
