<?xml version="1.0" encoding="utf-8"?>
<!-- Generator: Adobe Illustrator 16.0.0, SVG Export Plug-In . SVG Version: 6.00 Build 0)  -->
<!DOCTYPE svg PUBLIC "-//W3C//DTD SVG 1.1//EN" "http://www.w3.org/Graphics/SVG/1.1/DTD/svg11.dtd">
<svg version="1.1" id="Layer_1" xmlns="http://www.w3.org/2000/svg" xmlns:xlink="http://www.w3.org/1999/xlink" x="0px" y="0px"
	 width="16px" height="16px" viewBox="0 0 16 16" enable-background="new 0 0 16 16" xml:space="preserve">
<g id="social-in-share">
	<circle fill="#7F7A62" cx="8" cy="7.999" r="7.911"/>
	<path fill="#FFFFFF" d="M5.95,5.1c0.002,0.25-0.084,0.461-0.26,0.627C5.513,5.895,5.28,5.979,4.991,5.979h-0.01
		c-0.281,0-0.509-0.084-0.68-0.252C4.129,5.561,4.044,5.352,4.044,5.1c0-0.254,0.088-0.465,0.266-0.631
		c0.176-0.166,0.407-0.25,0.692-0.25c0.286,0,0.514,0.082,0.685,0.25C5.86,4.635,5.946,4.846,5.95,5.1z M5.842,6.676v5.103H4.144
		V6.676H5.842z M11.955,8.854v2.926h-1.693V9.051c0-0.361-0.07-0.644-0.209-0.849C9.914,7.999,9.697,7.895,9.4,7.895
		c-0.216,0-0.396,0.06-0.543,0.179c-0.146,0.118-0.255,0.265-0.326,0.44C8.494,8.617,8.475,8.756,8.475,8.932v2.848H6.78
		c0.006-1.369,0.011-2.48,0.011-3.332c0-0.852-0.001-1.359-0.005-1.526L6.78,6.674h1.694v0.742H8.464
		C8.533,7.307,8.603,7.21,8.676,7.128c0.071-0.083,0.169-0.172,0.291-0.268C9.089,6.764,9.238,6.69,9.415,6.635
		c0.177-0.053,0.372-0.078,0.589-0.078c0.588,0,1.061,0.194,1.417,0.584C11.776,7.533,11.955,8.104,11.955,8.854z"/>
</g>
<g id="Layer_1_1_">
</g>
</svg>
