<?xml version="1.0" encoding="utf-8"?>
<!-- Generator: Adobe Illustrator 16.0.0, SVG Export Plug-In . SVG Version: 6.00 Build 0)  -->
<!DOCTYPE svg PUBLIC "-//W3C//DTD SVG 1.1//EN" "http://www.w3.org/Graphics/SVG/1.1/DTD/svg11.dtd">
<svg version="1.1" id="Capa_1" xmlns="http://www.w3.org/2000/svg" xmlns:xlink="http://www.w3.org/1999/xlink" x="0px" y="0px"
	 width="16px" height="16px" viewBox="0 0 16 16" enable-background="new 0 0 16 16" xml:space="preserve">
<g>
	<path id="LinkedIn_3_" d="M15.961,9.328v5.887h-3.414V9.719c0-1.379-0.492-2.317-1.729-2.317c-0.943,0-1.5,0.634-1.748,1.247
		C8.979,8.869,8.951,9.176,8.951,9.48v5.734h-3.41c0,0,0.045-9.301,0-10.265h3.412v1.455C8.949,6.417,8.939,6.426,8.932,6.439h0.021
		V6.405c0.455-0.699,1.262-1.696,3.076-1.696C14.279,4.708,15.961,6.174,15.961,9.328z M1.97,0C0.802,0,0.039,0.766,0.039,1.776
		c0,0.982,0.741,1.773,1.889,1.773h0.02c1.193,0,1.933-0.791,1.933-1.773C3.855,0.766,3.14,0,1.97,0z M0.243,15.215h3.411V4.949
		H0.243V15.215z"/>
</g>
</svg>
